<?xml version="1.0" standalone="no"?>
<!DOCTYPE svg PUBLIC "-//W3C//DTD SVG 20010904//EN"
 "http://www.w3.org/TR/2001/REC-SVG-20010904/DTD/svg10.dtd">
<svg version="1.0" xmlns="http://www.w3.org/2000/svg"
 width="648.000000pt" height="424.000000pt" viewBox="0 0 648.000000 424.000000"
 preserveAspectRatio="xMidYMid meet">

<g transform="translate(0.000000,424.000000) scale(0.100000,-0.100000)"
fill="#000000" stroke="none">
<path d="M0 2120 l0 -2120 3240 0 3240 0 0 2120 0 2120 -3240 0 -3240 0 0
-2120z m5150 25 l0 -1305 -1915 0 -1915 0 0 1305 0 1305 1915 0 1915 0 0
-1305z"/>
<path d="M1340 2140 l0 -1290 1895 0 1895 0 0 1290 0 1290 -1895 0 -1895 0 0
-1290z m3760 5 l0 -1255 -1865 0 -1865 0 0 1255 0 1255 1865 0 1865 0 0 -1255z"/>
<path d="M1390 2138 l0 -1241 233 6 c127 4 958 7 1845 7 l1612 0 0 1235 0
1235 -1845 0 -1845 0 0 -1242z m2049 865 c123 -25 209 -71 237 -125 9 -17 14
-59 14 -117 0 -87 1 -90 29 -110 45 -32 53 -66 49 -196 l-3 -117 -43 -39 c-24
-21 -59 -43 -78 -49 -33 -11 -34 -13 -34 -62 0 -71 -24 -114 -86 -154 -92 -59
-185 -79 -364 -79 -99 0 -175 5 -210 14 -88 22 -172 64 -207 105 l-33 37 0
119 0 119 32 36 c17 20 53 47 80 61 45 23 48 27 48 63 0 30 -6 42 -24 54 -40
27 -56 76 -56 175 0 50 5 103 11 119 51 135 357 205 638 146z m-1503 -1259 c0
-21 -5 -24 -33 -24 l-33 0 0 -225 0 -225 -30 0 -30 0 0 225 0 225 -30 0 c-25
0 -30 4 -30 24 0 23 5 25 48 28 26 2 67 2 93 0 40 -3 45 -6 45 -28z m102 -76
l3 -108 29 0 30 0 0 110 0 110 30 0 30 0 0 -255 0 -255 -30 0 -30 0 0 120 0
120 -30 0 -30 0 0 -120 0 -120 -35 0 -35 0 0 256 0 255 33 -3 32 -3 3 -107z
m332 82 c0 -28 -2 -30 -40 -30 l-40 0 0 -80 0 -80 35 0 c31 0 35 -3 35 -25 0
-22 -4 -25 -35 -25 l-35 0 0 -85 0 -85 40 0 c39 0 40 -1 40 -35 l0 -36 -72 3
-73 3 -3 240 c-1 132 0 245 2 252 4 9 28 13 76 13 l70 0 0 -30z m341 1 c15
-18 19 -39 18 -95 0 -39 -4 -80 -8 -91 -5 -13 -1 -31 12 -52 16 -27 18 -48 15
-114 -3 -74 -6 -83 -31 -105 -24 -20 -39 -24 -98 -24 l-69 0 0 256 0 256 71
-4 c60 -3 74 -8 90 -27z m149 -180 c0 -115 3 -216 6 -225 9 -24 41 -19 48 7 3
12 6 113 6 225 l0 202 30 0 30 0 0 -217 c0 -188 -2 -223 -18 -253 -21 -43 -66
-59 -108 -39 -50 24 -57 55 -62 276 -3 111 -2 209 1 217 4 10 18 16 37 16 l30
0 0 -209z m315 199 c45 -17 55 -61 55 -245 0 -232 -12 -255 -129 -255 l-61 0
0 255 0 255 54 0 c30 0 66 -4 81 -10z m255 0 c21 -11 40 -60 40 -101 0 -26 -4
-29 -30 -29 -26 0 -30 4 -30 28 0 36 -22 67 -42 59 -22 -8 -28 -54 -27 -201 2
-155 7 -189 33 -194 27 -6 36 15 36 86 0 55 -2 62 -20 62 -16 0 -20 7 -20 30
0 29 1 30 51 30 l51 0 -3 -108 c-5 -123 -18 -155 -68 -165 -40 -8 -76 6 -97
37 -20 31 -31 229 -19 350 6 64 12 83 31 102 25 26 80 32 114 14z m240 -20 c0
-28 -2 -30 -40 -30 l-40 0 0 -80 0 -80 30 0 c25 0 30 -4 30 -25 0 -21 -5 -25
-30 -25 l-30 0 0 -85 0 -85 40 0 c39 0 40 -1 40 -35 l0 -35 -75 0 -75 0 0 255
0 255 75 0 75 0 0 -30z m208 -2 c3 -26 1 -28 -32 -28 l-36 0 0 -225 0 -225
-30 0 -30 0 0 225 0 225 -30 0 c-27 0 -30 3 -30 30 l0 31 93 -3 92 -3 3 -27z
m336 -1 c20 -27 21 -43 24 -253 l3 -224 -30 0 -31 0 0 70 0 70 -35 0 -35 0 0
-70 0 -70 -30 0 -30 0 0 198 c0 216 8 268 41 295 34 28 96 19 123 -16z m243 9
c26 -22 28 -30 31 -108 4 -110 -14 -149 -75 -162 l-43 -10 0 -103 0 -103 -35
0 -35 0 0 255 0 255 64 0 c54 0 70 -4 93 -24z m216 15 c13 -5 30 -23 37 -41
16 -40 17 -159 1 -199 -13 -29 -52 -51 -92 -51 -17 0 -19 -9 -19 -105 l0 -105
-30 0 -30 0 0 255 0 255 54 0 c30 0 66 -4 79 -9z"/>
<path d="M3068 2955 c-73 -15 -143 -43 -187 -74 -136 -97 168 -224 455 -191
169 19 304 79 304 134 0 37 -63 83 -155 112 -100 33 -309 42 -417 19z"/>
<path d="M2840 2693 c0 -22 7 -48 15 -59 14 -17 15 -15 13 35 -3 65 -28 86
-28 24z"/>
<path d="M3623 2723 c-8 -3 -13 -23 -13 -54 0 -51 15 -66 26 -25 9 36 1 83
-13 79z"/>
<path d="M2910 2637 c0 -40 4 -56 15 -61 14 -5 16 3 13 51 -4 77 -28 86 -28
10z"/>
<path d="M3557 2683 c-4 -3 -7 -30 -7 -59 0 -43 3 -52 15 -48 11 5 15 21 15
60 0 50 -7 64 -23 47z"/>
<path d="M2972 2612 c2 -45 7 -58 21 -60 14 -3 17 5 17 51 0 47 -3 55 -20 60
-20 5 -21 2 -18 -51z"/>
<path d="M3493 2663 c-20 -7 -17 -113 2 -113 12 0 15 13 15 60 0 33 -1 60 -2
59 -2 0 -9 -3 -15 -6z"/>
<path d="M3042 2594 c2 -36 8 -59 16 -62 10 -3 12 10 10 54 -2 36 -8 59 -16
62 -10 3 -12 -10 -10 -54z"/>
<path d="M3417 2643 c-4 -3 -7 -30 -7 -60 0 -40 4 -53 15 -53 12 0 15 13 15
60 0 55 -6 70 -23 53z"/>
<path d="M3110 2580 c0 -53 2 -60 20 -60 18 0 20 7 20 54 0 50 -9 66 -36 66
-2 0 -4 -27 -4 -60z"/>
<path d="M3353 2633 c-8 -3 -13 -25 -13 -59 0 -47 2 -54 20 -54 18 0 20 7 20
60 0 59 -2 64 -27 53z"/>
<path d="M3180 2576 c0 -45 3 -54 20 -59 18 -5 20 0 20 54 0 52 -2 59 -20 59
-18 0 -20 -7 -20 -54z"/>
<path d="M3260 2570 c0 -33 2 -60 4 -60 27 0 36 16 36 66 0 47 -2 54 -20 54
-18 0 -20 -7 -20 -60z"/>
<path d="M3656 2582 c-35 -38 -117 -78 -198 -97 -133 -33 -358 -28 -473 10
-11 3 1 -5 27 -20 79 -42 168 -59 313 -58 99 1 149 6 210 22 142 38 216 104
169 151 -20 20 -20 20 -48 -8z"/>
<path d="M2920 2422 c0 -21 7 -47 15 -58 13 -17 14 -15 15 32 0 37 -4 54 -15
58 -12 4 -15 -3 -15 -32z"/>
<path d="M3703 2453 c-9 -3 -13 -25 -13 -61 0 -54 1 -55 16 -34 18 26 16 101
-3 95z"/>
<path d="M2980 2371 c0 -40 4 -52 21 -61 19 -11 20 -9 17 47 -2 46 -7 59 -20
61 -15 3 -18 -4 -18 -47z"/>
<path d="M3637 2413 c-4 -3 -7 -31 -7 -61 0 -47 2 -53 15 -42 10 8 15 30 15
61 0 46 -7 59 -23 42z"/>
<path d="M2819 2381 c-56 -35 -63 -45 -55 -77 21 -80 265 -147 471 -129 l90 8
-105 13 c-112 13 -195 37 -264 78 -47 28 -70 57 -83 105 l-8 32 -46 -30z"/>
<path d="M3052 2343 c2 -34 8 -58 16 -61 19 -6 17 104 -3 112 -14 5 -16 -3
-13 -51z"/>
<path d="M3573 2393 c-20 -7 -17 -113 2 -113 12 0 15 13 15 60 0 33 -1 60 -2
59 -2 0 -9 -3 -15 -6z"/>
<path d="M3120 2321 c0 -48 3 -61 15 -61 13 0 15 11 13 57 -4 81 -28 85 -28 4z"/>
<path d="M3497 2373 c-4 -3 -7 -30 -7 -60 0 -40 4 -53 15 -53 12 0 15 13 15
60 0 55 -6 70 -23 53z"/>
<path d="M3190 2311 c0 -48 3 -61 15 -61 13 0 15 11 13 57 -4 81 -28 85 -28 4z"/>
<path d="M3433 2363 c-8 -3 -13 -25 -13 -59 0 -47 2 -54 20 -54 18 0 20 7 20
60 0 59 -2 64 -27 53z"/>
<path d="M3260 2305 c0 -30 2 -55 4 -55 2 0 11 -3 20 -6 14 -5 16 3 16 55 0
54 -2 61 -20 61 -18 0 -20 -7 -20 -55z"/>
<path d="M3340 2300 c0 -33 2 -60 4 -60 27 0 36 16 36 66 0 47 -2 54 -20 54
-18 0 -20 -7 -20 -60z"/>
<path d="M2760 2178 c0 -24 7 -53 15 -64 13 -17 14 -15 15 32 0 34 -5 56 -15
64 -13 11 -15 6 -15 -32z"/>
<path d="M3542 2211 c-9 -5 -12 -24 -10 -57 3 -46 4 -48 16 -26 17 30 12 95
-6 83z"/>
<path d="M2820 2127 c0 -40 4 -56 15 -61 14 -5 16 3 13 51 -4 77 -28 86 -28
10z"/>
<path d="M3473 2173 c-8 -3 -13 -25 -13 -60 0 -46 3 -54 16 -49 9 3 18 6 20 6
2 0 4 25 4 55 0 54 -3 58 -27 48z"/>
<path d="M2890 2095 c0 -42 3 -55 15 -55 12 0 15 13 15 55 0 42 -3 55 -15 55
-12 0 -15 -13 -15 -55z"/>
<path d="M3400 2095 c0 -42 3 -55 15 -55 12 0 15 13 15 55 0 42 -3 55 -15 55
-12 0 -15 -13 -15 -55z"/>
<path d="M2960 2080 c0 -47 3 -60 15 -60 11 0 15 13 15 54 0 39 -4 55 -15 60
-12 4 -15 -5 -15 -54z"/>
<path d="M3343 2133 c-20 -7 -17 -113 2 -113 12 0 15 13 15 60 0 33 -1 60 -2
59 -2 0 -9 -3 -15 -6z"/>
<path d="M3020 2065 c0 -48 2 -55 20 -55 18 0 20 7 20 55 0 48 -2 55 -20 55
-18 0 -20 -7 -20 -55z"/>
<path d="M3100 2060 c0 -53 2 -60 20 -60 18 0 20 7 20 60 0 53 -2 60 -20 60
-18 0 -20 -7 -20 -60z"/>
<path d="M3180 2060 c0 -53 2 -60 20 -60 18 0 20 7 20 60 0 53 -2 60 -20 60
-18 0 -20 -7 -20 -60z"/>
<path d="M3250 2065 c0 -48 2 -55 20 -55 18 0 20 7 20 55 0 48 -2 55 -20 55
-18 0 -20 -7 -20 -55z"/>
<path d="M2620 1640 c0 -81 6 -92 38 -72 17 11 26 72 18 116 -6 30 -11 36 -31
36 -24 0 -25 -2 -25 -80z"/>
<path d="M2620 1424 l0 -85 33 3 32 3 3 68 c3 76 -7 97 -44 97 -23 0 -24 -2
-24 -86z"/>
<path d="M3110 1529 l0 -190 28 3 27 3 3 165 c3 194 1 210 -33 210 l-25 0 0
-191z"/>
<path d="M4127 1723 c-3 -5 -9 -64 -13 -131 l-7 -122 37 0 36 0 -1 98 c-1 53
-4 110 -8 127 -6 28 -33 46 -44 28z"/>
<path d="M4370 1630 l0 -91 28 3 27 3 0 85 0 85 -27 3 -28 3 0 -91z"/>
<path d="M4600 1630 l0 -91 27 3 c23 2 29 9 35 42 5 21 5 59 0 85 -6 40 -11
46 -35 49 l-27 3 0 -91z"/>
</g>
</svg>
